ISO-10303-21;
HEADER;
FILE_DESCRIPTION (( 'STEP AP203' ),
    '1' );
FILE_NAME ('98381A484_Dowel Pin.STEP',
    '2025-08-26T18:39:18',
    ( 'Administrator' ),
    ( 'Managed by Terraform' ),
    'SwSTEP 2.0',
    'SolidWorks 2017',
    '' );
FILE_SCHEMA (( 'CONFIG_CONTROL_DESIGN' ));
ENDSEC;

DATA;
#1 = CALENDAR_DATE ( 2025, 26, 8 ) ;
#2 = ORIENTED_EDGE ( 'NONE', *, *, #42, .F. ) ;
#3 = DIRECTION ( 'NONE',  ( 0.0000000000000000000, 0.0000000000000000000, 1.000000000000000000 ) ) ;
#4 = SECURITY_CLASSIFICATION_LEVEL ( 'unclassified' ) ;
#5 = PLANE ( 'NONE',  #192 ) ;
#6 = AXIS2_PLACEMENT_3D ( 'NONE', #141, #18, #162 ) ;
#7 = TOROIDAL_SURFACE ( 'NONE', #22, 0.04650000000000000000, 0.01600000000000003200 ) ;
#8 =( LENGTH_UNIT ( ) NAMED_UNIT ( * ) SI_UNIT ( $, .METRE. ) );
#9 = DIRECTION ( 'NONE',  ( 0.0000000000000000000, 0.0000000000000000000, 1.000000000000000000 ) ) ;
#10 = DIRECTION ( 'NONE',  ( 1.000000000000000000, 0.0000000000000000000, 0.0000000000000000000 ) ) ;
#11 = DATE_AND_TIME ( #1, #58 ) ;
#12 = ORIENTED_EDGE ( 'NONE', *, *, #170, .F. ) ;
#13 = ADVANCED_FACE ( 'NONE', ( #256 ), #119, .F. ) ;
#14 = CALENDAR_DATE ( 2025, 26, 8 ) ;
#15 = ORIENTED_EDGE ( 'NONE', *, *, #179, .T. ) ;
#16 = CARTESIAN_POINT ( 'NONE',  ( -1.482562927780795500, 7.654042494670957500E-018, 0.06250000000000000000 ) ) ;
#17 = PRODUCT_DEFINITION_FORMATION_WITH_SPECIFIED_SOURCE ( 'ANY', '', #20, .NOT_KNOWN. ) ;
#18 = DIRECTION ( 'NONE',  ( 1.000000000000000000, 0.0000000000000000000, 0.0000000000000000000 ) ) ;
#19 = PERSON_AND_ORGANIZATION ( #255, #195 ) ;
#20 = PRODUCT ( '98381A484_Dowel Pin', '98381A484_Dowel Pin', '', ( #185 ) ) ;
#21 = APPLICATION_PROTOCOL_DEFINITION ( 'international standard', 'config_control_design', 1994, #94 ) ;
#22 = AXIS2_PLACEMENT_3D ( 'NONE', #204, #184, #225 ) ;
#23 = CC_DESIGN_PERSON_AND_ORGANIZATION_ASSIGNMENT ( #172, #88, ( #151 ) ) ;
#24 = ORIENTED_EDGE ( 'NONE', *, *, #242, .T. ) ;
#25 = DATE_AND_TIME ( #14, #64 ) ;
#26 = VECTOR ( 'NONE', #163, 39.37007874015748100 ) ;
#27 = CARTESIAN_POINT ( 'NONE',  ( -1.500000000000000200, 7.654042494670959100E-018, -0.06250000000000001400 ) ) ;
#28 = CARTESIAN_POINT ( 'NONE',  ( -1.482562927780795500, 0.0000000000000000000, -0.06250000000000000000 ) ) ;
#29 = PRODUCT_DEFINITION_SHAPE ( 'NONE', 'NONE',  #266 ) ;
#30 = APPROVAL_PERSON_ORGANIZATION ( #245, #81, #221 ) ;
#31 = ORIENTED_EDGE ( 'NONE', *, *, #62, .F. ) ;
#32 = CARTESIAN_POINT ( 'NONE',  ( 0.0000000000000000000, 0.0000000000000000000, 0.0000000000000000000 ) ) ;
#33 = ORIENTED_EDGE ( 'NONE', *, *, #187, .F. ) ;
#34 = AXIS2_PLACEMENT_3D ( 'NONE', #45, #241, #3 ) ;
#35 = PERSON_AND_ORGANIZATION ( #255, #195 ) ;
#36 = EDGE_LOOP ( 'NONE', ( #31, #144, #85, #15 ) ) ;
#37 = FACE_OUTER_BOUND ( 'NONE', #132, .T. ) ;
#38 = ORIENTED_EDGE ( 'NONE', *, *, #242, .F. ) ;
#39 = EDGE_CURVE ( 'NONE', #237, #83, #219, .T. ) ;
#40 = CONICAL_SURFACE ( 'NONE', #6, 0.06250000000000000000, 0.2792526803190917300 ) ;
#41 = DIRECTION ( 'NONE',  ( 0.0000000000000000000, 0.0000000000000000000, -1.000000000000000000 ) ) ;
#42 = EDGE_CURVE ( 'NONE', #196, #83, #199, .T. ) ;
#43 = CIRCLE ( 'NONE', #216, 0.06250000000000000000 ) ;
#44 = EDGE_LOOP ( 'NONE', ( #259, #191, #154, #33 ) ) ;
#45 = CARTESIAN_POINT ( 'NONE',  ( -1.500000000000000200, 0.0000000000000000000, 0.0000000000000000000 ) ) ;
#46 = CARTESIAN_POINT ( 'NONE',  ( 1.484000000000000000, 0.0000000000000000000, 0.0000000000000000000 ) ) ;
#47 = COORDINATED_UNIVERSAL_TIME_OFFSET ( 6, 0, .BEHIND. ) ;
#48 = VERTEX_POINT ( 'NONE', #236 ) ;
#49 = SHAPE_DEFINITION_REPRESENTATION ( #29, #183 ) ;
#50 = DIMENSIONAL_EXPONENTS ( 1.000000000000000000, 0.0000000000000000000, 0.0000000000000000000, 0.0000000000000000000, 0.0000000000000000000, 0.0000000000000000000, 0.0000000000000000000 ) ;
#51 = DIRECTION ( 'NONE',  ( 0.0000000000000000000, 0.0000000000000000000, 1.000000000000000000 ) ) ;
#52 = AXIS2_PLACEMENT_3D ( 'NONE', #217, #73, #51 ) ;
#53 = DIRECTION ( 'NONE',  ( -1.000000000000000000, -0.0000000000000000000, -0.0000000000000000000 ) ) ;
#54 = CARTESIAN_POINT ( 'NONE',  ( -1.500000000000000200, 0.05750000000000000200, 0.0000000000000000000 ) ) ;
#55 = CC_DESIGN_APPROVAL ( #269, ( #151 ) ) ;
#56 = APPROVAL_ROLE ( '' ) ;
#57 = AXIS2_PLACEMENT_3D ( 'NONE', #159, #84, #9 ) ;
#58 = LOCAL_TIME ( 13, 39, 18.00000000000000000, #160 ) ;
#59 = ORIENTED_EDGE ( 'NONE', *, *, #110, .F. ) ;
#60 = APPROVAL_STATUS ( 'not_yet_approved' ) ;
#61 = APPROVAL_STATUS ( 'not_yet_approved' ) ;
#62 = EDGE_CURVE ( 'NONE', #136, #48, #80, .T. ) ;
#63 = CC_DESIGN_PERSON_AND_ORGANIZATION_ASSIGNMENT ( #231, #127, ( #17 ) ) ;
#64 = LOCAL_TIME ( 13, 39, 18.00000000000000000, #227 ) ;
#65 = ORIENTED_EDGE ( 'NONE', *, *, #187, .T. ) ;
#66 = DIRECTION ( 'NONE',  ( 0.9612616959383190100, 0.0000000000000000000, -0.2756373558169982200 ) ) ;
#67 = AXIS2_PLACEMENT_3D ( 'NONE', #164, #121, #273 ) ;
#68 = DIRECTION ( 'NONE',  ( 0.0000000000000000000, 0.0000000000000000000, 1.000000000000000000 ) ) ;
#69 = LINE ( 'NONE', #198, #109 ) ;
#70 = FACE_OUTER_BOUND ( 'NONE', #167, .T. ) ;
#71 = LOCAL_TIME ( 13, 39, 18.00000000000000000, #161 ) ;
#72 = DIRECTION ( 'NONE',  ( 0.0000000000000000000, 0.0000000000000000000, 1.000000000000000000 ) ) ;
#73 = DIRECTION ( 'NONE',  ( -1.000000000000000000, -0.0000000000000000000, -0.0000000000000000000 ) ) ;
#74 = ADVANCED_FACE ( 'NONE', ( #70 ), #203, .T. ) ;
#75 = FACE_OUTER_BOUND ( 'NONE', #205, .T. ) ;
#76 = EDGE_CURVE ( 'NONE', #48, #232, #138, .T. ) ;
#77 = LINE ( 'NONE', #27, #211 ) ;
#78 = ORIENTED_EDGE ( 'NONE', *, *, #179, .F. ) ;
#79 = DIRECTION ( 'NONE',  ( 1.000000000000000000, 0.0000000000000000000, 0.0000000000000000000 ) ) ;
#80 = LINE ( 'NONE', #16, #26 ) ;
#81 = APPROVAL ( #60, 'UNSPECIFIED' ) ;
#82 = CALENDAR_DATE ( 2025, 26, 8 ) ;
#83 = VERTEX_POINT ( 'NONE', #265 ) ;
#84 = DIRECTION ( 'NONE',  ( -1.000000000000000000, -0.0000000000000000000, -0.0000000000000000000 ) ) ;
#85 = ORIENTED_EDGE ( 'NONE', *, *, #95, .T. ) ;
#86 =( CONVERSION_BASED_UNIT ( 'INCH', #117 ) LENGTH_UNIT ( ) NAMED_UNIT ( #50 ) );
#87 = DIRECTION ( 'NONE',  ( 0.0000000000000000000, 0.0000000000000000000, 1.000000000000000000 ) ) ;
#88 = PERSON_AND_ORGANIZATION_ROLE ( 'classification_officer' ) ;
#89 = ORIENTED_EDGE ( 'NONE', *, *, #42, .T. ) ;
#90 = DIRECTION ( 'NONE',  ( 1.000000000000000000, 0.0000000000000000000, 0.0000000000000000000 ) ) ;
#91 = DIRECTION ( 'NONE',  ( 0.0000000000000000000, -1.224646799147353500E-016, 1.000000000000000000 ) ) ;
#92 = DATE_AND_TIME ( #82, #258 ) ;
#93 = ORIENTED_EDGE ( 'NONE', *, *, #170, .T. ) ;
#94 = APPLICATION_CONTEXT ( 'configuration controlled 3d designs of mechanical parts and assemblies' ) ;
#95 = EDGE_CURVE ( 'NONE', #100, #232, #278, .T. ) ;
#96 = CARTESIAN_POINT ( 'NONE',  ( 1.484000000000000700, 0.0000000000000000000, 0.0000000000000000000 ) ) ;
#97 = CC_DESIGN_APPROVAL ( #81, ( #17 ) ) ;
#98 =( GEOMETRIC_REPRESENTATION_CONTEXT ( 3 ) GLOBAL_UNCERTAINTY_ASSIGNED_CONTEXT ( ( #233 ) ) GLOBAL_UNIT_ASSIGNED_CONTEXT ( ( #86, #111, #101 ) ) REPRESENTATION_CONTEXT ( 'NONE', 'WORKASPACE' ) );
#99 = VECTOR ( 'NONE', #66, 39.37007874015748100 ) ;
#100 = VERTEX_POINT ( 'NONE', #155 ) ;
#101 =( NAMED_UNIT ( * ) SI_UNIT ( $, .STERADIAN. ) SOLID_ANGLE_UNIT ( ) );
#102 = CC_DESIGN_PERSON_AND_ORGANIZATION_ASSIGNMENT ( #35, #210, ( #20 ) ) ;
#103 = PERSON_AND_ORGANIZATION ( #255, #195 ) ;
#104 = PRODUCT_RELATED_PRODUCT_CATEGORY ( 'detail', '', ( #20 ) ) ;
#105 = FACE_OUTER_BOUND ( 'NONE', #44, .T. ) ;
#106 = ORIENTED_EDGE ( 'NONE', *, *, #260, .T. ) ;
#107 = DIRECTION ( 'NONE',  ( 0.0000000000000000000, 0.0000000000000000000, 1.000000000000000000 ) ) ;
#108 = DIRECTION ( 'NONE',  ( 0.0000000000000000000, 0.0000000000000000000, 1.000000000000000000 ) ) ;
#109 = VECTOR ( 'NONE', #113, 39.37007874015748100 ) ;
#110 = EDGE_CURVE ( 'NONE', #83, #232, #77, .T. ) ;
#111 =( NAMED_UNIT ( * ) PLANE_ANGLE_UNIT ( ) SI_UNIT ( $, .RADIAN. ) );
#112 = CC_DESIGN_PERSON_AND_ORGANIZATION_ASSIGNMENT ( #122, #193, ( #17 ) ) ;
#113 = DIRECTION ( 'NONE',  ( -1.000000000000000000, -0.0000000000000000000, -0.0000000000000000000 ) ) ;
#114 = APPROVAL ( #147, 'UNSPECIFIED' ) ;
#115 = APPROVAL_DATE_TIME ( #11, #114 ) ;
#116 = ADVANCED_FACE ( 'NONE', ( #75 ), #277, .T. ) ;
#117 = LENGTH_MEASURE_WITH_UNIT ( LENGTH_MEASURE( 0.02539999999999999900 ), #8 );
#118 = DIRECTION ( 'NONE',  ( 0.0000000000000000000, 0.0000000000000000000, 1.000000000000000000 ) ) ;
#119 = PLANE ( 'NONE',  #171 ) ;
#120 = ADVANCED_FACE ( 'NONE', ( #37 ), #5, .F. ) ;
#121 = DIRECTION ( 'NONE',  ( -1.000000000000000000, -0.0000000000000000000, -0.0000000000000000000 ) ) ;
#122 = PERSON_AND_ORGANIZATION ( #255, #195 ) ;
#123 = ORIENTED_EDGE ( 'NONE', *, *, #110, .T. ) ;
#124 = ORIENTED_EDGE ( 'NONE', *, *, #134, .F. ) ;
#125 = AXIS2_PLACEMENT_3D ( 'NONE', #157, #201, #108 ) ;
#126 = CYLINDRICAL_SURFACE ( 'NONE', #34, 0.06250000000000001400 ) ;
#127 = PERSON_AND_ORGANIZATION_ROLE ( 'design_supplier' ) ;
#128 = ORIENTED_EDGE ( 'NONE', *, *, #146, .F. ) ;
#129 = CARTESIAN_POINT ( 'NONE',  ( 1.500000000000000200, 0.0000000000000000000, 0.0000000000000000000 ) ) ;
#130 = DIRECTION ( 'NONE',  ( -1.000000000000000000, 0.0000000000000000000, -0.0000000000000000000 ) ) ;
#131 = APPROVAL_PERSON_ORGANIZATION ( #248, #269, #222 ) ;
#132 = EDGE_LOOP ( 'NONE', ( #148, #128 ) ) ;
#133 = DIRECTION ( 'NONE',  ( -0.0000000000000000000, 0.0000000000000000000, 1.000000000000000000 ) ) ;
#134 = EDGE_CURVE ( 'NONE', #186, #196, #230, .T. ) ;
#135 = CARTESIAN_POINT ( 'NONE',  ( -1.482562927780795500, 0.0000000000000000000, 0.0000000000000000000 ) ) ;
#136 = VERTEX_POINT ( 'NONE', #177 ) ;
#137 = ADVANCED_FACE ( 'NONE', ( #218 ), #262, .T. ) ;
#138 = CIRCLE ( 'NONE', #125, 0.06250000000000000000 ) ;
#139 = DIRECTION ( 'NONE',  ( 0.0000000000000000000, 0.0000000000000000000, -1.000000000000000000 ) ) ;
#140 = CARTESIAN_POINT ( 'NONE',  ( 1.484000000000000700, 0.0000000000000000000, 0.06250000000000002800 ) ) ;
#141 = CARTESIAN_POINT ( 'NONE',  ( -1.482562927780795500, 0.0000000000000000000, 0.0000000000000000000 ) ) ;
#142 = CC_DESIGN_APPROVAL ( #114, ( #266 ) ) ;
#143 = APPROVAL_PERSON_ORGANIZATION ( #19, #114, #56 ) ;
#144 = ORIENTED_EDGE ( 'NONE', *, *, #260, .F. ) ;
#145 = DESIGN_CONTEXT ( 'detailed design', #94, 'design' ) ;
#146 = EDGE_CURVE ( 'NONE', #237, #186, #180, .T. ) ;
#147 = APPROVAL_STATUS ( 'not_yet_approved' ) ;
#148 = ORIENTED_EDGE ( 'NONE', *, *, #213, .F. ) ;
#149 = FACE_OUTER_BOUND ( 'NONE', #228, .T. ) ;
#150 = ORIENTED_EDGE ( 'NONE', *, *, #76, .F. ) ;
#151 = SECURITY_CLASSIFICATION ( '', '', #4 ) ;
#152 = CARTESIAN_POINT ( 'NONE',  ( 1.500000000000000200, 6.674325055353076400E-018, -0.04650000000000000000 ) ) ;
#153 = FACE_OUTER_BOUND ( 'NONE', #36, .T. ) ;
#154 = ORIENTED_EDGE ( 'NONE', *, *, #134, .T. ) ;
#155 = CARTESIAN_POINT ( 'NONE',  ( -1.500000000000000200, 0.0000000000000000000, -0.05750000000000000200 ) ) ;
#156 = CIRCLE ( 'NONE', #176, 0.06250000000000001400 ) ;
#157 = CARTESIAN_POINT ( 'NONE',  ( -1.482562927780795500, 0.0000000000000000000, 0.0000000000000000000 ) ) ;
#158 = DATE_TIME_ROLE ( 'classification_date' ) ;
#159 = CARTESIAN_POINT ( 'NONE',  ( -1.500000000000000200, 0.0000000000000000000, 0.0000000000000000000 ) ) ;
#160 = COORDINATED_UNIVERSAL_TIME_OFFSET ( 6, 0, .BEHIND. ) ;
#161 = COORDINATED_UNIVERSAL_TIME_OFFSET ( 6, 0, .BEHIND. ) ;
#162 = DIRECTION ( 'NONE',  ( 0.0000000000000000000, 0.0000000000000000000, -1.000000000000000000 ) ) ;
#163 = DIRECTION ( 'NONE',  ( 0.9612616959383190100, 3.375584055267269200E-017, 0.2756373558169982200 ) ) ;
#164 = CARTESIAN_POINT ( 'NONE',  ( -1.500000000000000200, 0.0000000000000000000, 0.0000000000000000000 ) ) ;
#165 = PERSON_AND_ORGANIZATION_ROLE ( 'creator' ) ;
#166 = CIRCLE ( 'NONE', #224, 0.04650000000000000000 ) ;
#167 = EDGE_LOOP ( 'NONE', ( #12, #263, #254, #190 ) ) ;
#168 = CC_DESIGN_DATE_AND_TIME_ASSIGNMENT ( #25, #158, ( #151 ) ) ;
#169 = CIRCLE ( 'NONE', #57, 0.05750000000000000200 ) ;
#170 = EDGE_CURVE ( 'NONE', #136, #100, #253, .T. ) ;
#171 = AXIS2_PLACEMENT_3D ( 'NONE', #54, #79, #275 ) ;
#172 = PERSON_AND_ORGANIZATION ( #255, #195 ) ;
#173 = EDGE_LOOP ( 'NONE', ( #89, #123, #150, #38 ) ) ;
#174 = ORIENTED_EDGE ( 'NONE', *, *, #213, .T. ) ;
#175 = DIRECTION ( 'NONE',  ( -1.000000000000000000, -0.0000000000000000000, -0.0000000000000000000 ) ) ;
#176 = AXIS2_PLACEMENT_3D ( 'NONE', #96, #251, #118 ) ;
#177 = CARTESIAN_POINT ( 'NONE',  ( -1.500000000000000200, 7.347880794884119900E-018, 0.05750000000000000200 ) ) ;
#178 = CARTESIAN_POINT ( 'NONE',  ( 1.484000000000000000, 5.694607616035192900E-018, -0.04650000000000000000 ) ) ;
#179 = EDGE_CURVE ( 'NONE', #232, #48, #43, .T. ) ;
#180 = CIRCLE ( 'NONE', #52, 0.04650000000000000000 ) ;
#181 = DIRECTION ( 'NONE',  ( -0.0000000000000000000, 1.000000000000000000, 1.224646799147353200E-016 ) ) ;
#182 = APPROVAL_DATE_TIME ( #238, #269 ) ;
#183 = ADVANCED_BREP_SHAPE_REPRESENTATION ( '98381A484_Dowel Pin', ( #194, #252 ), #98 ) ;
#184 = DIRECTION ( 'NONE',  ( -1.000000000000000000, -0.0000000000000000000, -0.0000000000000000000 ) ) ;
#185 = MECHANICAL_CONTEXT ( 'NONE', #268, 'mechanical' ) ;
#186 = VERTEX_POINT ( 'NONE', #246 ) ;
#187 = EDGE_CURVE ( 'NONE', #83, #196, #156, .T. ) ;
#188 = AXIS2_PLACEMENT_3D ( 'NONE', #178, #181, #91 ) ;
#189 = APPROVAL_DATE_TIME ( #92, #81 ) ;
#190 = ORIENTED_EDGE ( 'NONE', *, *, #95, .F. ) ;
#191 = ORIENTED_EDGE ( 'NONE', *, *, #146, .T. ) ;
#192 = AXIS2_PLACEMENT_3D ( 'NONE', #240, #130, #133 ) ;
#193 = PERSON_AND_ORGANIZATION_ROLE ( 'creator' ) ;
#194 = MANIFOLD_SOLID_BREP ( 'Revolve1', #207 ) ;
#195 = ORGANIZATION ( 'UNSPECIFIED', 'UNSPECIFIED', '' ) ;
#196 = VERTEX_POINT ( 'NONE', #140 ) ;
#197 = DIRECTION ( 'NONE',  ( 0.0000000000000000000, -1.000000000000000000, 0.0000000000000000000 ) ) ;
#198 = CARTESIAN_POINT ( 'NONE',  ( -1.500000000000000200, 0.0000000000000000000, 0.06250000000000001400 ) ) ;
#199 = CIRCLE ( 'NONE', #209, 0.06250000000000001400 ) ;
#200 = DIRECTION ( 'NONE',  ( -1.000000000000000000, -0.0000000000000000000, -0.0000000000000000000 ) ) ;
#201 = DIRECTION ( 'NONE',  ( -1.000000000000000000, -0.0000000000000000000, -0.0000000000000000000 ) ) ;
#202 = AXIS2_PLACEMENT_3D ( 'NONE', #135, #10, #139 ) ;
#203 = CONICAL_SURFACE ( 'NONE', #202, 0.06250000000000000000, 0.2792526803190917300 ) ;
#204 = CARTESIAN_POINT ( 'NONE',  ( 1.484000000000000000, 0.0000000000000000000, 0.0000000000000000000 ) ) ;
#205 = EDGE_LOOP ( 'NONE', ( #174, #234, #2, #124 ) ) ;
#206 = DIRECTION ( 'NONE',  ( -1.000000000000000000, -0.0000000000000000000, -0.0000000000000000000 ) ) ;
#207 = CLOSED_SHELL ( 'NONE', ( #74, #137, #116, #247, #229, #208, #13, #120 ) ) ;
#208 = ADVANCED_FACE ( 'NONE', ( #153 ), #40, .T. ) ;
#209 = AXIS2_PLACEMENT_3D ( 'NONE', #271, #206, #72 ) ;
#210 = PERSON_AND_ORGANIZATION_ROLE ( 'design_owner' ) ;
#211 = VECTOR ( 'NONE', #243, 39.37007874015748100 ) ;
#212 = DIRECTION ( 'NONE',  ( 0.0000000000000000000, 0.0000000000000000000, 1.000000000000000000 ) ) ;
#213 = EDGE_CURVE ( 'NONE', #186, #237, #166, .T. ) ;
#214 = CALENDAR_DATE ( 2025, 26, 8 ) ;
#215 = DATE_AND_TIME ( #214, #274 ) ;
#216 = AXIS2_PLACEMENT_3D ( 'NONE', #276, #53, #212 ) ;
#217 = CARTESIAN_POINT ( 'NONE',  ( 1.500000000000000200, 0.0000000000000000000, 0.0000000000000000000 ) ) ;
#218 = FACE_OUTER_BOUND ( 'NONE', #173, .T. ) ;
#219 = CIRCLE ( 'NONE', #188, 0.01600000000000003200 ) ;
#220 = CALENDAR_DATE ( 2025, 26, 8 ) ;
#221 = APPROVAL_ROLE ( '' ) ;
#222 = APPROVAL_ROLE ( '' ) ;
#223 = CARTESIAN_POINT ( 'NONE',  ( -1.500000000000000200, 0.0000000000000000000, 0.0000000000000000000 ) ) ;
#224 = AXIS2_PLACEMENT_3D ( 'NONE', #129, #239, #107 ) ;
#225 = DIRECTION ( 'NONE',  ( 0.0000000000000000000, 0.0000000000000000000, 1.000000000000000000 ) ) ;
#226 = CC_DESIGN_SECURITY_CLASSIFICATION ( #151, ( #17 ) ) ;
#227 = COORDINATED_UNIVERSAL_TIME_OFFSET ( 6, 0, .BEHIND. ) ;
#228 = EDGE_LOOP ( 'NONE', ( #59, #65, #24, #78 ) ) ;
#229 = ADVANCED_FACE ( 'NONE', ( #149 ), #126, .T. ) ;
#230 = CIRCLE ( 'NONE', #272, 0.01600000000000003200 ) ;
#231 = PERSON_AND_ORGANIZATION ( #255, #195 ) ;
#232 = VERTEX_POINT ( 'NONE', #264 ) ;
#233 = UNCERTAINTY_MEASURE_WITH_UNIT (LENGTH_MEASURE( 1.000000000000000100E-005 ), #86, 'distance_accuracy_value', 'NONE');
#234 = ORIENTED_EDGE ( 'NONE', *, *, #39, .T. ) ;
#235 = DIRECTION ( 'NONE',  ( 0.0000000000000000000, 0.0000000000000000000, 1.000000000000000000 ) ) ;
#236 = CARTESIAN_POINT ( 'NONE',  ( -1.482562927780795500, 0.0000000000000000000, 0.06250000000000000000 ) ) ;
#237 = VERTEX_POINT ( 'NONE', #152 ) ;
#238 = DATE_AND_TIME ( #220, #71 ) ;
#239 = DIRECTION ( 'NONE',  ( -1.000000000000000000, -0.0000000000000000000, -0.0000000000000000000 ) ) ;
#240 = CARTESIAN_POINT ( 'NONE',  ( 1.500000000000000200, 0.04650000000000000000, 0.0000000000000000000 ) ) ;
#241 = DIRECTION ( 'NONE',  ( -1.000000000000000000, -0.0000000000000000000, -0.0000000000000000000 ) ) ;
#242 = EDGE_CURVE ( 'NONE', #196, #48, #69, .T. ) ;
#243 = DIRECTION ( 'NONE',  ( -1.000000000000000000, -0.0000000000000000000, -0.0000000000000000000 ) ) ;
#244 = CARTESIAN_POINT ( 'NONE',  ( 1.484000000000000000, 0.0000000000000000000, 0.04650000000000000000 ) ) ;
#245 = PERSON_AND_ORGANIZATION ( #255, #195 ) ;
#246 = CARTESIAN_POINT ( 'NONE',  ( 1.500000000000000200, 0.0000000000000000000, 0.04650000000000000000 ) ) ;
#247 = ADVANCED_FACE ( 'NONE', ( #105 ), #7, .T. ) ;
#248 = PERSON_AND_ORGANIZATION ( #255, #195 ) ;
#249 = EDGE_LOOP ( 'NONE', ( #106, #93 ) ) ;
#250 = AXIS2_PLACEMENT_3D ( 'NONE', #223, #175, #235 ) ;
#251 = DIRECTION ( 'NONE',  ( -1.000000000000000000, -0.0000000000000000000, -0.0000000000000000000 ) ) ;
#252 = AXIS2_PLACEMENT_3D ( 'NONE', #32, #68, #90 ) ;
#253 = CIRCLE ( 'NONE', #67, 0.05750000000000000200 ) ;
#254 = ORIENTED_EDGE ( 'NONE', *, *, #76, .T. ) ;
#255 = PERSON ( 'UNSPECIFIED', 'UNSPECIFIED', 'UNSPECIFIED', ('UNSPECIFIED'), ('UNSPECIFIED'), ('UNSPECIFIED') ) ;
#256 = FACE_OUTER_BOUND ( 'NONE', #249, .T. ) ;
#257 = AXIS2_PLACEMENT_3D ( 'NONE', #46, #200, #87 ) ;
#258 = LOCAL_TIME ( 13, 39, 18.00000000000000000, #267 ) ;
#259 = ORIENTED_EDGE ( 'NONE', *, *, #39, .F. ) ;
#260 = EDGE_CURVE ( 'NONE', #100, #136, #169, .T. ) ;
#261 = DATE_TIME_ROLE ( 'creation_date' ) ;
#262 = CYLINDRICAL_SURFACE ( 'NONE', #250, 0.06250000000000001400 ) ;
#263 = ORIENTED_EDGE ( 'NONE', *, *, #62, .T. ) ;
#264 = CARTESIAN_POINT ( 'NONE',  ( -1.482562927780795500, 7.654042494670959100E-018, -0.06250000000000000000 ) ) ;
#265 = CARTESIAN_POINT ( 'NONE',  ( 1.484000000000000700, 7.654042494670960600E-018, -0.06250000000000002800 ) ) ;
#266 = PRODUCT_DEFINITION ( 'UNKNOWN', '', #17, #145 ) ;
#267 = COORDINATED_UNIVERSAL_TIME_OFFSET ( 6, 0, .BEHIND. ) ;
#268 = APPLICATION_CONTEXT ( 'configuration controlled 3d designs of mechanical parts and assemblies' ) ;
#269 = APPROVAL ( #61, 'UNSPECIFIED' ) ;
#270 = APPLICATION_PROTOCOL_DEFINITION ( 'international standard', 'config_control_design', 1994, #268 ) ;
#271 = CARTESIAN_POINT ( 'NONE',  ( 1.484000000000000700, 0.0000000000000000000, 0.0000000000000000000 ) ) ;
#272 = AXIS2_PLACEMENT_3D ( 'NONE', #244, #197, #41 ) ;
#273 = DIRECTION ( 'NONE',  ( 0.0000000000000000000, 0.0000000000000000000, 1.000000000000000000 ) ) ;
#274 = LOCAL_TIME ( 13, 39, 18.00000000000000000, #47 ) ;
#275 = DIRECTION ( 'NONE',  ( 0.0000000000000000000, 0.0000000000000000000, -1.000000000000000000 ) ) ;
#276 = CARTESIAN_POINT ( 'NONE',  ( -1.482562927780795500, 0.0000000000000000000, 0.0000000000000000000 ) ) ;
#277 = TOROIDAL_SURFACE ( 'NONE', #257, 0.04650000000000000000, 0.01600000000000003200 ) ;
#278 = LINE ( 'NONE', #28, #99 ) ;
#279 = CC_DESIGN_DATE_AND_TIME_ASSIGNMENT ( #215, #261, ( #266 ) ) ;
#280 = CC_DESIGN_PERSON_AND_ORGANIZATION_ASSIGNMENT ( #103, #165, ( #266 ) ) ;
ENDSEC;
END-ISO-10303-21;
